<svg xmlns="http://www.w3.org/2000/svg" width="1500" height="1120" viewBox="0 0 1500 1120" role="img" aria-label="ReTree budget 16, 32, and 64 compared with DFlash">
<rect x="0" y="0" width="1500" height="1120" rx="0" fill="#ffffff"/>
<text x="50" y="56" text-anchor="start" font-family="Inter, Segoe UI, Arial, sans-serif" font-size="34" font-weight="750" fill="#0f172a">ReTree Budget Comparison</text>
<text x="50" y="92" text-anchor="start" font-family="Inter, Segoe UI, Arial, sans-serif" font-size="18" font-weight="400" fill="#475569">DFlash reference vs ReTree with 16-, 32-, and 64-node trees.</text>
<rect x="900" y="30" width="540" height="78" rx="10" fill="#f8fafc" stroke="#e2e8f0" stroke-width="1"/>
<rect x="924" y="55" width="22" height="22" rx="4" fill="#94a3b8"/>
<text x="956" y="72" text-anchor="start" font-family="Inter, Segoe UI, Arial, sans-serif" font-size="16" font-weight="650" fill="#334155">DFlash</text>
<rect x="1050" y="55" width="22" height="22" rx="4" fill="#f59e0b"/>
<text x="1082" y="72" text-anchor="start" font-family="Inter, Segoe UI, Arial, sans-serif" font-size="16" font-weight="650" fill="#334155">ReTree-16</text>
<rect x="1186" y="55" width="22" height="22" rx="4" fill="#2563eb"/>
<text x="1218" y="72" text-anchor="start" font-family="Inter, Segoe UI, Arial, sans-serif" font-size="16" font-weight="650" fill="#334155">ReTree-32</text>
<rect x="1322" y="55" width="22" height="22" rx="4" fill="#16a34a"/>
<text x="1354" y="72" text-anchor="start" font-family="Inter, Segoe UI, Arial, sans-serif" font-size="16" font-weight="650" fill="#334155">ReTree-64</text>
<text x="58" y="140" text-anchor="start" font-family="Inter, Segoe UI, Arial, sans-serif" font-size="19" font-weight="700" fill="#334155">Speedup vs baseline</text>
<text x="1420" y="140" text-anchor="end" font-family="Inter, Segoe UI, Arial, sans-serif" font-size="15" font-weight="500" fill="#64748b">Summary rows use arithmetic mean.</text>
<line x1="120" y1="500" x2="1420" y2="500" stroke="#e2e8f0" stroke-width="1"/>
<text x="104" y="505" text-anchor="end" font-family="Inter, Segoe UI, Arial, sans-serif" font-size="14" font-weight="400" fill="#64748b">0x</text>
<line x1="120" y1="450.7" x2="1420" y2="450.7" stroke="#e2e8f0" stroke-width="1"/>
<text x="104" y="455.7" text-anchor="end" font-family="Inter, Segoe UI, Arial, sans-serif" font-size="14" font-weight="400" fill="#64748b">1x</text>
<line x1="120" y1="401.4" x2="1420" y2="401.4" stroke="#e2e8f0" stroke-width="1"/>
<text x="104" y="406.4" text-anchor="end" font-family="Inter, Segoe UI, Arial, sans-serif" font-size="14" font-weight="400" fill="#64748b">2x</text>
<line x1="120" y1="352.1" x2="1420" y2="352.1" stroke="#e2e8f0" stroke-width="1"/>
<text x="104" y="357.1" text-anchor="end" font-family="Inter, Segoe UI, Arial, sans-serif" font-size="14" font-weight="400" fill="#64748b">3x</text>
<line x1="120" y1="302.9" x2="1420" y2="302.9" stroke="#e2e8f0" stroke-width="1"/>
<text x="104" y="307.9" text-anchor="end" font-family="Inter, Segoe UI, Arial, sans-serif" font-size="14" font-weight="400" fill="#64748b">4x</text>
<line x1="120" y1="253.6" x2="1420" y2="253.6" stroke="#e2e8f0" stroke-width="1"/>
<text x="104" y="258.6" text-anchor="end" font-family="Inter, Segoe UI, Arial, sans-serif" font-size="14" font-weight="400" fill="#64748b">5x</text>
<line x1="120" y1="204.3" x2="1420" y2="204.3" stroke="#e2e8f0" stroke-width="1"/>
<text x="104" y="209.3" text-anchor="end" font-family="Inter, Segoe UI, Arial, sans-serif" font-size="14" font-weight="400" fill="#64748b">6x</text>
<line x1="120" y1="155" x2="1420" y2="155" stroke="#e2e8f0" stroke-width="1"/>
<text x="104" y="160" text-anchor="end" font-family="Inter, Segoe UI, Arial, sans-serif" font-size="14" font-weight="400" fill="#64748b">7x</text>
<rect x="1215.3333333333333" y="147" width="192.66666666666666" height="433" rx="10" fill="#f8fafc" stroke="#e2e8f0" stroke-width="1"/>
<rect x="168.8" y="243.7" width="23" height="256.3" rx="6" fill="#94a3b8"/>
<text x="180.3" y="235.7" text-anchor="middle" font-family="Inter, Segoe UI, Arial, sans-serif" font-size="12" font-weight="700" fill="#94a3b8">5.20x</text>
<rect x="200.8" y="235.8" width="23" height="264.2" rx="6" fill="#f59e0b"/>
<text x="212.3" y="227.8" text-anchor="middle" font-family="Inter, Segoe UI, Arial, sans-serif" font-size="12" font-weight="700" fill="#f59e0b">5.36x</text>
<rect x="232.8" y="226" width="23" height="274" rx="6" fill="#2563eb"/>
<text x="244.3" y="218" text-anchor="middle" font-family="Inter, Segoe UI, Arial, sans-serif" font-size="12" font-weight="700" fill="#2563eb">5.56x</text>
<rect x="264.8" y="216.1" width="23" height="283.9" rx="6" fill="#16a34a"/>
<text x="276.3" y="208.1" text-anchor="middle" font-family="Inter, Segoe UI, Arial, sans-serif" font-size="12" font-weight="700" fill="#16a34a">5.76x</text>
<text x="228.33333333333331" y="534" text-anchor="middle" font-family="Inter, Segoe UI, Arial, sans-serif" font-size="15" font-weight="700" fill="#334155">GSM8K</text>
<rect x="385.5" y="195.9" width="23" height="304.1" rx="6" fill="#94a3b8"/>
<text x="397" y="187.9" text-anchor="middle" font-family="Inter, Segoe UI, Arial, sans-serif" font-size="12" font-weight="700" fill="#94a3b8">6.17x</text>
<rect x="417.5" y="204.8" width="23" height="295.2" rx="6" fill="#f59e0b"/>
<text x="429" y="196.8" text-anchor="middle" font-family="Inter, Segoe UI, Arial, sans-serif" font-size="12" font-weight="700" fill="#f59e0b">5.99x</text>
<rect x="449.5" y="185.1" width="23" height="314.9" rx="6" fill="#2563eb"/>
<text x="461" y="177.1" text-anchor="middle" font-family="Inter, Segoe UI, Arial, sans-serif" font-size="12" font-weight="700" fill="#2563eb">6.39x</text>
<rect x="481.5" y="179.2" width="23" height="320.8" rx="6" fill="#16a34a"/>
<text x="493" y="171.2" text-anchor="middle" font-family="Inter, Segoe UI, Arial, sans-serif" font-size="12" font-weight="700" fill="#16a34a">6.51x</text>
<text x="445" y="534" text-anchor="middle" font-family="Inter, Segoe UI, Arial, sans-serif" font-size="14" font-weight="700" fill="#334155">MATH-500</text>
<rect x="602.2" y="243.7" width="23" height="256.3" rx="6" fill="#94a3b8"/>
<text x="613.7" y="235.7" text-anchor="middle" font-family="Inter, Segoe UI, Arial, sans-serif" font-size="12" font-weight="700" fill="#94a3b8">5.20x</text>
<rect x="634.2" y="236.3" width="23" height="263.7" rx="6" fill="#f59e0b"/>
<text x="645.7" y="228.3" text-anchor="middle" font-family="Inter, Segoe UI, Arial, sans-serif" font-size="12" font-weight="700" fill="#f59e0b">5.35x</text>
<rect x="666.2" y="219.1" width="23" height="280.9" rx="6" fill="#2563eb"/>
<text x="677.7" y="211.1" text-anchor="middle" font-family="Inter, Segoe UI, Arial, sans-serif" font-size="12" font-weight="700" fill="#2563eb">5.70x</text>
<rect x="698.2" y="204.3" width="23" height="295.7" rx="6" fill="#16a34a"/>
<text x="709.7" y="196.3" text-anchor="middle" font-family="Inter, Segoe UI, Arial, sans-serif" font-size="12" font-weight="700" fill="#16a34a">6.00x</text>
<text x="661.6666666666666" y="534" text-anchor="middle" font-family="Inter, Segoe UI, Arial, sans-serif" font-size="15" font-weight="700" fill="#334155">HumanEval</text>
<rect x="818.8" y="265.9" width="23" height="234.1" rx="6" fill="#94a3b8"/>
<text x="830.3" y="257.9" text-anchor="middle" font-family="Inter, Segoe UI, Arial, sans-serif" font-size="12" font-weight="700" fill="#94a3b8">4.75x</text>
<rect x="850.8" y="258.5" width="23" height="241.5" rx="6" fill="#f59e0b"/>
<text x="862.3" y="250.5" text-anchor="middle" font-family="Inter, Segoe UI, Arial, sans-serif" font-size="12" font-weight="700" fill="#f59e0b">4.90x</text>
<rect x="882.8" y="240.8" width="23" height="259.2" rx="6" fill="#2563eb"/>
<text x="894.3" y="232.8" text-anchor="middle" font-family="Inter, Segoe UI, Arial, sans-serif" font-size="12" font-weight="700" fill="#2563eb">5.26x</text>
<rect x="914.8" y="231.4" width="23" height="268.6" rx="6" fill="#16a34a"/>
<text x="926.3" y="223.4" text-anchor="middle" font-family="Inter, Segoe UI, Arial, sans-serif" font-size="12" font-weight="700" fill="#16a34a">5.45x</text>
<text x="878.3333333333333" y="534" text-anchor="middle" font-family="Inter, Segoe UI, Arial, sans-serif" font-size="15" font-weight="700" fill="#334155">MBPP</text>
<rect x="1035.5" y="362.5" width="23" height="137.5" rx="6" fill="#94a3b8"/>
<text x="1047" y="354.5" text-anchor="middle" font-family="Inter, Segoe UI, Arial, sans-serif" font-size="12" font-weight="700" fill="#94a3b8">2.79x</text>
<rect x="1067.5" y="351.6" width="23" height="148.4" rx="6" fill="#f59e0b"/>
<text x="1079" y="343.6" text-anchor="middle" font-family="Inter, Segoe UI, Arial, sans-serif" font-size="12" font-weight="700" fill="#f59e0b">3.01x</text>
<rect x="1099.5" y="339.8" width="23" height="160.2" rx="6" fill="#2563eb"/>
<text x="1111" y="331.8" text-anchor="middle" font-family="Inter, Segoe UI, Arial, sans-serif" font-size="12" font-weight="700" fill="#2563eb">3.25x</text>
<rect x="1131.5" y="330.5" width="23" height="169.5" rx="6" fill="#16a34a"/>
<text x="1143" y="322.5" text-anchor="middle" font-family="Inter, Segoe UI, Arial, sans-serif" font-size="12" font-weight="700" fill="#16a34a">3.44x</text>
<text x="1095" y="534" text-anchor="middle" font-family="Inter, Segoe UI, Arial, sans-serif" font-size="15" font-weight="700" fill="#334155">MT-Bench</text>
<rect x="1252.2" y="262.4" width="23" height="237.6" rx="6" fill="#94a3b8"/>
<text x="1263.7" y="254.39999999999998" text-anchor="middle" font-family="Inter, Segoe UI, Arial, sans-serif" font-size="12" font-weight="700" fill="#94a3b8">4.82x</text>
<rect x="1284.2" y="257.5" width="23" height="242.5" rx="6" fill="#f59e0b"/>
<text x="1295.7" y="249.5" text-anchor="middle" font-family="Inter, Segoe UI, Arial, sans-serif" font-size="12" font-weight="700" fill="#f59e0b">4.92x</text>
<rect x="1316.2" y="242.2" width="23" height="257.8" rx="6" fill="#2563eb"/>
<text x="1327.7" y="234.2" text-anchor="middle" font-family="Inter, Segoe UI, Arial, sans-serif" font-size="12" font-weight="700" fill="#2563eb">5.23x</text>
<rect x="1348.2" y="232.4" width="23" height="267.6" rx="6" fill="#16a34a"/>
<text x="1359.7" y="224.4" text-anchor="middle" font-family="Inter, Segoe UI, Arial, sans-serif" font-size="12" font-weight="700" fill="#16a34a">5.43x</text>
<text x="1311.6666666666665" y="534" text-anchor="middle" font-family="Inter, Segoe UI, Arial, sans-serif" font-size="15" font-weight="700" fill="#334155">Average</text>
<text x="58" y="640" text-anchor="start" font-family="Inter, Segoe UI, Arial, sans-serif" font-size="19" font-weight="700" fill="#334155">Accepted length per verification round</text>
<text x="1420" y="640" text-anchor="end" font-family="Inter, Segoe UI, Arial, sans-serif" font-size="15" font-weight="500" fill="#64748b">Accepted length is measured from local block-size-16 runs.</text>
<line x1="120" y1="940" x2="1420" y2="940" stroke="#e2e8f0" stroke-width="1"/>
<text x="104" y="945" text-anchor="end" font-family="Inter, Segoe UI, Arial, sans-serif" font-size="14" font-weight="400" fill="#64748b">0</text>
<line x1="120" y1="914.1" x2="1420" y2="914.1" stroke="#e2e8f0" stroke-width="1"/>
<text x="104" y="919.1" text-anchor="end" font-family="Inter, Segoe UI, Arial, sans-serif" font-size="14" font-weight="400" fill="#64748b">1</text>
<line x1="120" y1="888.2" x2="1420" y2="888.2" stroke="#e2e8f0" stroke-width="1"/>
<text x="104" y="893.2" text-anchor="end" font-family="Inter, Segoe UI, Arial, sans-serif" font-size="14" font-weight="400" fill="#64748b">2</text>
<line x1="120" y1="862.3" x2="1420" y2="862.3" stroke="#e2e8f0" stroke-width="1"/>
<text x="104" y="867.3" text-anchor="end" font-family="Inter, Segoe UI, Arial, sans-serif" font-size="14" font-weight="400" fill="#64748b">3</text>
<line x1="120" y1="836.4" x2="1420" y2="836.4" stroke="#e2e8f0" stroke-width="1"/>
<text x="104" y="841.4" text-anchor="end" font-family="Inter, Segoe UI, Arial, sans-serif" font-size="14" font-weight="400" fill="#64748b">4</text>
<line x1="120" y1="810.5" x2="1420" y2="810.5" stroke="#e2e8f0" stroke-width="1"/>
<text x="104" y="815.5" text-anchor="end" font-family="Inter, Segoe UI, Arial, sans-serif" font-size="14" font-weight="400" fill="#64748b">5</text>
<line x1="120" y1="784.5" x2="1420" y2="784.5" stroke="#e2e8f0" stroke-width="1"/>
<text x="104" y="789.5" text-anchor="end" font-family="Inter, Segoe UI, Arial, sans-serif" font-size="14" font-weight="400" fill="#64748b">6</text>
<line x1="120" y1="758.6" x2="1420" y2="758.6" stroke="#e2e8f0" stroke-width="1"/>
<text x="104" y="763.6" text-anchor="end" font-family="Inter, Segoe UI, Arial, sans-serif" font-size="14" font-weight="400" fill="#64748b">7</text>
<line x1="120" y1="732.7" x2="1420" y2="732.7" stroke="#e2e8f0" stroke-width="1"/>
<text x="104" y="737.7" text-anchor="end" font-family="Inter, Segoe UI, Arial, sans-serif" font-size="14" font-weight="400" fill="#64748b">8</text>
<line x1="120" y1="706.8" x2="1420" y2="706.8" stroke="#e2e8f0" stroke-width="1"/>
<text x="104" y="711.8" text-anchor="end" font-family="Inter, Segoe UI, Arial, sans-serif" font-size="14" font-weight="400" fill="#64748b">9</text>
<line x1="120" y1="680.9" x2="1420" y2="680.9" stroke="#e2e8f0" stroke-width="1"/>
<text x="104" y="685.9" text-anchor="end" font-family="Inter, Segoe UI, Arial, sans-serif" font-size="14" font-weight="400" fill="#64748b">10</text>
<line x1="120" y1="655" x2="1420" y2="655" stroke="#e2e8f0" stroke-width="1"/>
<text x="104" y="660" text-anchor="end" font-family="Inter, Segoe UI, Arial, sans-serif" font-size="14" font-weight="400" fill="#64748b">11</text>
<rect x="1215.3333333333333" y="647" width="192.66666666666666" height="373" rx="10" fill="#f8fafc" stroke="#e2e8f0" stroke-width="1"/>
<rect x="168.8" y="769.8" width="23" height="170.2" rx="6" fill="#94a3b8"/>
<text x="180.3" y="761.8" text-anchor="middle" font-family="Inter, Segoe UI, Arial, sans-serif" font-size="12" font-weight="700" fill="#94a3b8">6.57</text>
<rect x="200.8" y="741.3" width="23" height="198.7" rx="6" fill="#f59e0b"/>
<text x="212.3" y="733.3" text-anchor="middle" font-family="Inter, Segoe UI, Arial, sans-serif" font-size="12" font-weight="700" fill="#f59e0b">7.67</text>
<rect x="232.8" y="725.7" width="23" height="214.3" rx="6" fill="#2563eb"/>
<text x="244.3" y="717.7" text-anchor="middle" font-family="Inter, Segoe UI, Arial, sans-serif" font-size="12" font-weight="700" fill="#2563eb">8.27</text>
<rect x="264.8" y="716.7" width="23" height="223.3" rx="6" fill="#16a34a"/>
<text x="276.3" y="708.7" text-anchor="middle" font-family="Inter, Segoe UI, Arial, sans-serif" font-size="12" font-weight="700" fill="#16a34a">8.62</text>
<text x="228.33333333333331" y="974" text-anchor="middle" font-family="Inter, Segoe UI, Arial, sans-serif" font-size="15" font-weight="700" fill="#334155">GSM8K</text>
<rect x="385.5" y="735.8" width="23" height="204.2" rx="6" fill="#94a3b8"/>
<text x="397" y="727.8" text-anchor="middle" font-family="Inter, Segoe UI, Arial, sans-serif" font-size="12" font-weight="700" fill="#94a3b8">7.88</text>
<rect x="417.5" y="712.5" width="23" height="227.5" rx="6" fill="#f59e0b"/>
<text x="429" y="704.5" text-anchor="middle" font-family="Inter, Segoe UI, Arial, sans-serif" font-size="12" font-weight="700" fill="#f59e0b">8.78</text>
<rect x="449.5" y="697" width="23" height="243" rx="6" fill="#2563eb"/>
<text x="461" y="689" text-anchor="middle" font-family="Inter, Segoe UI, Arial, sans-serif" font-size="12" font-weight="700" fill="#2563eb">9.38</text>
<rect x="481.5" y="682.7" width="23" height="257.3" rx="6" fill="#16a34a"/>
<text x="493" y="674.7" text-anchor="middle" font-family="Inter, Segoe UI, Arial, sans-serif" font-size="12" font-weight="700" fill="#16a34a">9.93</text>
<text x="445" y="974" text-anchor="middle" font-family="Inter, Segoe UI, Arial, sans-serif" font-size="14" font-weight="700" fill="#334155">MATH-500</text>
<rect x="602.2" y="770" width="23" height="170" rx="6" fill="#94a3b8"/>
<text x="613.7" y="762" text-anchor="middle" font-family="Inter, Segoe UI, Arial, sans-serif" font-size="12" font-weight="700" fill="#94a3b8">6.56</text>
<rect x="634.2" y="742.1" width="23" height="197.9" rx="6" fill="#f59e0b"/>
<text x="645.7" y="734.1" text-anchor="middle" font-family="Inter, Segoe UI, Arial, sans-serif" font-size="12" font-weight="700" fill="#f59e0b">7.64</text>
<rect x="666.2" y="725.2" width="23" height="214.8" rx="6" fill="#2563eb"/>
<text x="677.7" y="717.2" text-anchor="middle" font-family="Inter, Segoe UI, Arial, sans-serif" font-size="12" font-weight="700" fill="#2563eb">8.29</text>
<rect x="698.2" y="709.7" width="23" height="230.3" rx="6" fill="#16a34a"/>
<text x="709.7" y="701.7" text-anchor="middle" font-family="Inter, Segoe UI, Arial, sans-serif" font-size="12" font-weight="700" fill="#16a34a">8.89</text>
<text x="661.6666666666666" y="974" text-anchor="middle" font-family="Inter, Segoe UI, Arial, sans-serif" font-size="15" font-weight="700" fill="#334155">HumanEval</text>
<rect x="818.8" y="786.1" width="23" height="153.9" rx="6" fill="#94a3b8"/>
<text x="830.3" y="778.1" text-anchor="middle" font-family="Inter, Segoe UI, Arial, sans-serif" font-size="12" font-weight="700" fill="#94a3b8">5.94</text>
<rect x="850.8" y="758.1" width="23" height="181.9" rx="6" fill="#f59e0b"/>
<text x="862.3" y="750.1" text-anchor="middle" font-family="Inter, Segoe UI, Arial, sans-serif" font-size="12" font-weight="700" fill="#f59e0b">7.02</text>
<rect x="882.8" y="739.7" width="23" height="200.3" rx="6" fill="#2563eb"/>
<text x="894.3" y="731.7" text-anchor="middle" font-family="Inter, Segoe UI, Arial, sans-serif" font-size="12" font-weight="700" fill="#2563eb">7.73</text>
<rect x="914.8" y="729.6" width="23" height="210.4" rx="6" fill="#16a34a"/>
<text x="926.3" y="721.6" text-anchor="middle" font-family="Inter, Segoe UI, Arial, sans-serif" font-size="12" font-weight="700" fill="#16a34a">8.12</text>
<text x="878.3333333333333" y="974" text-anchor="middle" font-family="Inter, Segoe UI, Arial, sans-serif" font-size="15" font-weight="700" fill="#334155">MBPP</text>
<rect x="1035.5" y="829.4" width="23" height="110.6" rx="6" fill="#94a3b8"/>
<text x="1047" y="821.4" text-anchor="middle" font-family="Inter, Segoe UI, Arial, sans-serif" font-size="12" font-weight="700" fill="#94a3b8">4.27</text>
<rect x="1067.5" y="806.3" width="23" height="133.7" rx="6" fill="#f59e0b"/>
<text x="1079" y="798.3" text-anchor="middle" font-family="Inter, Segoe UI, Arial, sans-serif" font-size="12" font-weight="700" fill="#f59e0b">5.16</text>
<rect x="1099.5" y="797" width="23" height="143" rx="6" fill="#2563eb"/>
<text x="1111" y="789" text-anchor="middle" font-family="Inter, Segoe UI, Arial, sans-serif" font-size="12" font-weight="700" fill="#2563eb">5.52</text>
<rect x="1131.5" y="787.1" width="23" height="152.9" rx="6" fill="#16a34a"/>
<text x="1143" y="779.1" text-anchor="middle" font-family="Inter, Segoe UI, Arial, sans-serif" font-size="12" font-weight="700" fill="#16a34a">5.90</text>
<text x="1095" y="974" text-anchor="middle" font-family="Inter, Segoe UI, Arial, sans-serif" font-size="15" font-weight="700" fill="#334155">MT-Bench</text>
<rect x="1252.2" y="778.3" width="23" height="161.7" rx="6" fill="#94a3b8"/>
<text x="1263.7" y="770.3" text-anchor="middle" font-family="Inter, Segoe UI, Arial, sans-serif" font-size="12" font-weight="700" fill="#94a3b8">6.24</text>
<rect x="1284.2" y="752.2" width="23" height="187.8" rx="6" fill="#f59e0b"/>
<text x="1295.7" y="744.2" text-anchor="middle" font-family="Inter, Segoe UI, Arial, sans-serif" font-size="12" font-weight="700" fill="#f59e0b">7.25</text>
<rect x="1316.2" y="736.9" width="23" height="203.1" rx="6" fill="#2563eb"/>
<text x="1327.7" y="728.9" text-anchor="middle" font-family="Inter, Segoe UI, Arial, sans-serif" font-size="12" font-weight="700" fill="#2563eb">7.84</text>
<rect x="1348.2" y="725.2" width="23" height="214.8" rx="6" fill="#16a34a"/>
<text x="1359.7" y="717.2" text-anchor="middle" font-family="Inter, Segoe UI, Arial, sans-serif" font-size="12" font-weight="700" fill="#16a34a">8.29</text>
<text x="1311.6666666666665" y="974" text-anchor="middle" font-family="Inter, Segoe UI, Arial, sans-serif" font-size="15" font-weight="700" fill="#334155">Average</text>
<rect x="50" y="1000" width="1400" height="74" rx="10" fill="#f8fafc" stroke="#e2e8f0" stroke-width="1"/>
<text x="78" y="1031" text-anchor="start" font-family="Inter, Segoe UI, Arial, sans-serif" font-size="17" font-weight="750" fill="#0f172a">Average speedup: DFlash 4.82x, ReTree-16 4.92x (+2.1%), ReTree-32 5.23x (+8.5%), ReTree-64 5.43x (+12.7%).</text>
<text x="78" y="1058" text-anchor="start" font-family="Inter, Segoe UI, Arial, sans-serif" font-size="16" font-weight="500" fill="#475569">Average accepted length: DFlash 6.24, ReTree-16 7.25, ReTree-32 7.84, ReTree-64 8.29; ReTree-16 uses one quarter of the 64-node budget.</text>
</svg>
