<svg xmlns="http://www.w3.org/2000/svg" width="1180" height="1120" viewBox="0 0 1180 1120" role="img" aria-label="ReTree budget 16, 32, and 64 compared with DFlash">
<rect x="0" y="0" width="1180" height="1120" rx="0" fill="#ffffff"/>
<text x="44" y="58" text-anchor="start" font-family="Inter, Segoe UI, Arial, sans-serif" font-size="38" font-weight="750" fill="#0f172a">ReTree Budget Comparison</text>
<text x="44" y="94" text-anchor="start" font-family="Inter, Segoe UI, Arial, sans-serif" font-size="20" font-weight="400" fill="#475569">DFlash reference vs ReTree with 16-, 32-, and 64-node trees.</text>
<rect x="716" y="24" width="420" height="92" rx="10" fill="#f8fafc" stroke="#e2e8f0" stroke-width="1"/>
<rect x="736" y="44" width="22" height="22" rx="4" fill="#94a3b8"/>
<text x="770" y="61" text-anchor="start" font-family="Inter, Segoe UI, Arial, sans-serif" font-size="17" font-weight="650" fill="#334155">DFlash</text>
<rect x="928" y="44" width="22" height="22" rx="4" fill="#f59e0b"/>
<text x="962" y="61" text-anchor="start" font-family="Inter, Segoe UI, Arial, sans-serif" font-size="17" font-weight="650" fill="#334155">ReTree-16</text>
<rect x="736" y="78" width="22" height="22" rx="4" fill="#2563eb"/>
<text x="770" y="95" text-anchor="start" font-family="Inter, Segoe UI, Arial, sans-serif" font-size="17" font-weight="650" fill="#334155">ReTree-32</text>
<rect x="928" y="78" width="22" height="22" rx="4" fill="#16a34a"/>
<text x="962" y="95" text-anchor="start" font-family="Inter, Segoe UI, Arial, sans-serif" font-size="17" font-weight="650" fill="#334155">ReTree-64</text>
<text x="44" y="152" text-anchor="start" font-family="Inter, Segoe UI, Arial, sans-serif" font-size="23" font-weight="750" fill="#334155">Speedup vs baseline</text>
<text x="1120" y="152" text-anchor="end" font-family="Inter, Segoe UI, Arial, sans-serif" font-size="16" font-weight="500" fill="#64748b">Summary rows use arithmetic mean.</text>
<line x1="100" y1="505" x2="1120" y2="505" stroke="#e2e8f0" stroke-width="1"/>
<text x="84" y="511" text-anchor="end" font-family="Inter, Segoe UI, Arial, sans-serif" font-size="16" font-weight="400" fill="#64748b">0x</text>
<line x1="100" y1="457.1" x2="1120" y2="457.1" stroke="#e2e8f0" stroke-width="1"/>
<text x="84" y="463.1" text-anchor="end" font-family="Inter, Segoe UI, Arial, sans-serif" font-size="16" font-weight="400" fill="#64748b">1x</text>
<line x1="100" y1="409.3" x2="1120" y2="409.3" stroke="#e2e8f0" stroke-width="1"/>
<text x="84" y="415.3" text-anchor="end" font-family="Inter, Segoe UI, Arial, sans-serif" font-size="16" font-weight="400" fill="#64748b">2x</text>
<line x1="100" y1="361.4" x2="1120" y2="361.4" stroke="#e2e8f0" stroke-width="1"/>
<text x="84" y="367.4" text-anchor="end" font-family="Inter, Segoe UI, Arial, sans-serif" font-size="16" font-weight="400" fill="#64748b">3x</text>
<line x1="100" y1="313.6" x2="1120" y2="313.6" stroke="#e2e8f0" stroke-width="1"/>
<text x="84" y="319.6" text-anchor="end" font-family="Inter, Segoe UI, Arial, sans-serif" font-size="16" font-weight="400" fill="#64748b">4x</text>
<line x1="100" y1="265.7" x2="1120" y2="265.7" stroke="#e2e8f0" stroke-width="1"/>
<text x="84" y="271.7" text-anchor="end" font-family="Inter, Segoe UI, Arial, sans-serif" font-size="16" font-weight="400" fill="#64748b">5x</text>
<line x1="100" y1="217.9" x2="1120" y2="217.9" stroke="#e2e8f0" stroke-width="1"/>
<text x="84" y="223.9" text-anchor="end" font-family="Inter, Segoe UI, Arial, sans-serif" font-size="16" font-weight="400" fill="#64748b">6x</text>
<line x1="100" y1="170" x2="1120" y2="170" stroke="#e2e8f0" stroke-width="1"/>
<text x="84" y="176" text-anchor="end" font-family="Inter, Segoe UI, Arial, sans-serif" font-size="16" font-weight="400" fill="#64748b">7x</text>
<rect x="960" y="160" width="150" height="427" rx="10" fill="#f8fafc" stroke="#e2e8f0" stroke-width="1"/>
<rect x="125" y="256.1" width="24" height="248.9" rx="6" fill="#94a3b8"/>
<text x="137" y="247.10000000000002" text-anchor="middle" font-family="Inter, Segoe UI, Arial, sans-serif" font-size="14" font-weight="750" fill="#94a3b8">5.20x</text>
<rect x="157" y="248.5" width="24" height="256.5" rx="6" fill="#f59e0b"/>
<text x="169" y="239.5" text-anchor="middle" font-family="Inter, Segoe UI, Arial, sans-serif" font-size="14" font-weight="750" fill="#f59e0b">5.36x</text>
<rect x="189" y="238.9" width="24" height="266.1" rx="6" fill="#2563eb"/>
<text x="201" y="229.9" text-anchor="middle" font-family="Inter, Segoe UI, Arial, sans-serif" font-size="14" font-weight="750" fill="#2563eb">5.56x</text>
<rect x="221" y="229.3" width="24" height="275.7" rx="6" fill="#16a34a"/>
<text x="233" y="220.3" text-anchor="middle" font-family="Inter, Segoe UI, Arial, sans-serif" font-size="14" font-weight="750" fill="#16a34a">5.76x</text>
<text x="185" y="543" text-anchor="middle" font-family="Inter, Segoe UI, Arial, sans-serif" font-size="17" font-weight="750" fill="#334155">GSM8K</text>
<rect x="295" y="209.7" width="24" height="295.3" rx="6" fill="#94a3b8"/>
<text x="307" y="200.7" text-anchor="middle" font-family="Inter, Segoe UI, Arial, sans-serif" font-size="14" font-weight="750" fill="#94a3b8">6.17x</text>
<rect x="327" y="218.3" width="24" height="286.7" rx="6" fill="#f59e0b"/>
<text x="339" y="209.3" text-anchor="middle" font-family="Inter, Segoe UI, Arial, sans-serif" font-size="14" font-weight="750" fill="#f59e0b">5.99x</text>
<rect x="359" y="199.2" width="24" height="305.8" rx="6" fill="#2563eb"/>
<text x="371" y="190.2" text-anchor="middle" font-family="Inter, Segoe UI, Arial, sans-serif" font-size="14" font-weight="750" fill="#2563eb">6.39x</text>
<rect x="391" y="193.5" width="24" height="311.5" rx="6" fill="#16a34a"/>
<text x="403" y="184.5" text-anchor="middle" font-family="Inter, Segoe UI, Arial, sans-serif" font-size="14" font-weight="750" fill="#16a34a">6.51x</text>
<text x="355" y="543" text-anchor="middle" font-family="Inter, Segoe UI, Arial, sans-serif" font-size="16" font-weight="750" fill="#334155">MATH-500</text>
<rect x="465" y="256.1" width="24" height="248.9" rx="6" fill="#94a3b8"/>
<text x="477" y="247.10000000000002" text-anchor="middle" font-family="Inter, Segoe UI, Arial, sans-serif" font-size="14" font-weight="750" fill="#94a3b8">5.20x</text>
<rect x="497" y="249" width="24" height="256" rx="6" fill="#f59e0b"/>
<text x="509" y="240" text-anchor="middle" font-family="Inter, Segoe UI, Arial, sans-serif" font-size="14" font-weight="750" fill="#f59e0b">5.35x</text>
<rect x="529" y="232.2" width="24" height="272.8" rx="6" fill="#2563eb"/>
<text x="541" y="223.2" text-anchor="middle" font-family="Inter, Segoe UI, Arial, sans-serif" font-size="14" font-weight="750" fill="#2563eb">5.70x</text>
<rect x="561" y="217.9" width="24" height="287.1" rx="6" fill="#16a34a"/>
<text x="573" y="208.9" text-anchor="middle" font-family="Inter, Segoe UI, Arial, sans-serif" font-size="14" font-weight="750" fill="#16a34a">6.00x</text>
<text x="525" y="543" text-anchor="middle" font-family="Inter, Segoe UI, Arial, sans-serif" font-size="17" font-weight="750" fill="#334155">HumanEval</text>
<rect x="635" y="277.7" width="24" height="227.3" rx="6" fill="#94a3b8"/>
<text x="647" y="268.7" text-anchor="middle" font-family="Inter, Segoe UI, Arial, sans-serif" font-size="14" font-weight="750" fill="#94a3b8">4.75x</text>
<rect x="667" y="270.5" width="24" height="234.5" rx="6" fill="#f59e0b"/>
<text x="679" y="261.5" text-anchor="middle" font-family="Inter, Segoe UI, Arial, sans-serif" font-size="14" font-weight="750" fill="#f59e0b">4.90x</text>
<rect x="699" y="253.3" width="24" height="251.7" rx="6" fill="#2563eb"/>
<text x="711" y="244.3" text-anchor="middle" font-family="Inter, Segoe UI, Arial, sans-serif" font-size="14" font-weight="750" fill="#2563eb">5.26x</text>
<rect x="731" y="244.2" width="24" height="260.8" rx="6" fill="#16a34a"/>
<text x="743" y="235.2" text-anchor="middle" font-family="Inter, Segoe UI, Arial, sans-serif" font-size="14" font-weight="750" fill="#16a34a">5.45x</text>
<text x="695" y="543" text-anchor="middle" font-family="Inter, Segoe UI, Arial, sans-serif" font-size="17" font-weight="750" fill="#334155">MBPP</text>
<rect x="805" y="371.5" width="24" height="133.5" rx="6" fill="#94a3b8"/>
<text x="817" y="362.5" text-anchor="middle" font-family="Inter, Segoe UI, Arial, sans-serif" font-size="14" font-weight="750" fill="#94a3b8">2.79x</text>
<rect x="837" y="360.9" width="24" height="144.1" rx="6" fill="#f59e0b"/>
<text x="849" y="351.9" text-anchor="middle" font-family="Inter, Segoe UI, Arial, sans-serif" font-size="14" font-weight="750" fill="#f59e0b">3.01x</text>
<rect x="869" y="349.5" width="24" height="155.5" rx="6" fill="#2563eb"/>
<text x="881" y="340.5" text-anchor="middle" font-family="Inter, Segoe UI, Arial, sans-serif" font-size="14" font-weight="750" fill="#2563eb">3.25x</text>
<rect x="901" y="340.4" width="24" height="164.6" rx="6" fill="#16a34a"/>
<text x="913" y="331.4" text-anchor="middle" font-family="Inter, Segoe UI, Arial, sans-serif" font-size="14" font-weight="750" fill="#16a34a">3.44x</text>
<text x="865" y="543" text-anchor="middle" font-family="Inter, Segoe UI, Arial, sans-serif" font-size="17" font-weight="750" fill="#334155">MT-Bench</text>
<rect x="975" y="274.3" width="24" height="230.7" rx="6" fill="#94a3b8"/>
<text x="987" y="265.3" text-anchor="middle" font-family="Inter, Segoe UI, Arial, sans-serif" font-size="14" font-weight="750" fill="#94a3b8">4.82x</text>
<rect x="1007" y="269.5" width="24" height="235.5" rx="6" fill="#f59e0b"/>
<text x="1019" y="260.5" text-anchor="middle" font-family="Inter, Segoe UI, Arial, sans-serif" font-size="14" font-weight="750" fill="#f59e0b">4.92x</text>
<rect x="1039" y="254.7" width="24" height="250.3" rx="6" fill="#2563eb"/>
<text x="1051" y="245.7" text-anchor="middle" font-family="Inter, Segoe UI, Arial, sans-serif" font-size="14" font-weight="750" fill="#2563eb">5.23x</text>
<rect x="1071" y="245.1" width="24" height="259.9" rx="6" fill="#16a34a"/>
<text x="1083" y="236.1" text-anchor="middle" font-family="Inter, Segoe UI, Arial, sans-serif" font-size="14" font-weight="750" fill="#16a34a">5.43x</text>
<text x="1035" y="543" text-anchor="middle" font-family="Inter, Segoe UI, Arial, sans-serif" font-size="17" font-weight="750" fill="#334155">Average</text>
<text x="44" y="642" text-anchor="start" font-family="Inter, Segoe UI, Arial, sans-serif" font-size="23" font-weight="750" fill="#334155">Accepted length per verification round</text>
<text x="1120" y="642" text-anchor="end" font-family="Inter, Segoe UI, Arial, sans-serif" font-size="16" font-weight="500" fill="#64748b">Measured from local block-size-16 runs.</text>
<line x1="100" y1="960" x2="1120" y2="960" stroke="#e2e8f0" stroke-width="1"/>
<text x="84" y="966" text-anchor="end" font-family="Inter, Segoe UI, Arial, sans-serif" font-size="16" font-weight="400" fill="#64748b">0</text>
<line x1="100" y1="932.7" x2="1120" y2="932.7" stroke="#e2e8f0" stroke-width="1"/>
<text x="84" y="938.7" text-anchor="end" font-family="Inter, Segoe UI, Arial, sans-serif" font-size="16" font-weight="400" fill="#64748b">1</text>
<line x1="100" y1="905.5" x2="1120" y2="905.5" stroke="#e2e8f0" stroke-width="1"/>
<text x="84" y="911.5" text-anchor="end" font-family="Inter, Segoe UI, Arial, sans-serif" font-size="16" font-weight="400" fill="#64748b">2</text>
<line x1="100" y1="878.2" x2="1120" y2="878.2" stroke="#e2e8f0" stroke-width="1"/>
<text x="84" y="884.2" text-anchor="end" font-family="Inter, Segoe UI, Arial, sans-serif" font-size="16" font-weight="400" fill="#64748b">3</text>
<line x1="100" y1="850.9" x2="1120" y2="850.9" stroke="#e2e8f0" stroke-width="1"/>
<text x="84" y="856.9" text-anchor="end" font-family="Inter, Segoe UI, Arial, sans-serif" font-size="16" font-weight="400" fill="#64748b">4</text>
<line x1="100" y1="823.6" x2="1120" y2="823.6" stroke="#e2e8f0" stroke-width="1"/>
<text x="84" y="829.6" text-anchor="end" font-family="Inter, Segoe UI, Arial, sans-serif" font-size="16" font-weight="400" fill="#64748b">5</text>
<line x1="100" y1="796.4" x2="1120" y2="796.4" stroke="#e2e8f0" stroke-width="1"/>
<text x="84" y="802.4" text-anchor="end" font-family="Inter, Segoe UI, Arial, sans-serif" font-size="16" font-weight="400" fill="#64748b">6</text>
<line x1="100" y1="769.1" x2="1120" y2="769.1" stroke="#e2e8f0" stroke-width="1"/>
<text x="84" y="775.1" text-anchor="end" font-family="Inter, Segoe UI, Arial, sans-serif" font-size="16" font-weight="400" fill="#64748b">7</text>
<line x1="100" y1="741.8" x2="1120" y2="741.8" stroke="#e2e8f0" stroke-width="1"/>
<text x="84" y="747.8" text-anchor="end" font-family="Inter, Segoe UI, Arial, sans-serif" font-size="16" font-weight="400" fill="#64748b">8</text>
<line x1="100" y1="714.5" x2="1120" y2="714.5" stroke="#e2e8f0" stroke-width="1"/>
<text x="84" y="720.5" text-anchor="end" font-family="Inter, Segoe UI, Arial, sans-serif" font-size="16" font-weight="400" fill="#64748b">9</text>
<line x1="100" y1="687.3" x2="1120" y2="687.3" stroke="#e2e8f0" stroke-width="1"/>
<text x="84" y="693.3" text-anchor="end" font-family="Inter, Segoe UI, Arial, sans-serif" font-size="16" font-weight="400" fill="#64748b">10</text>
<line x1="100" y1="660" x2="1120" y2="660" stroke="#e2e8f0" stroke-width="1"/>
<text x="84" y="666" text-anchor="end" font-family="Inter, Segoe UI, Arial, sans-serif" font-size="16" font-weight="400" fill="#64748b">11</text>
<rect x="960" y="650" width="150" height="392" rx="10" fill="#f8fafc" stroke="#e2e8f0" stroke-width="1"/>
<rect x="125" y="780.8" width="24" height="179.2" rx="6" fill="#94a3b8"/>
<text x="137" y="771.8" text-anchor="middle" font-family="Inter, Segoe UI, Arial, sans-serif" font-size="14" font-weight="750" fill="#94a3b8">6.57</text>
<rect x="157" y="750.8" width="24" height="209.2" rx="6" fill="#f59e0b"/>
<text x="169" y="741.8" text-anchor="middle" font-family="Inter, Segoe UI, Arial, sans-serif" font-size="14" font-weight="750" fill="#f59e0b">7.67</text>
<rect x="189" y="734.5" width="24" height="225.5" rx="6" fill="#2563eb"/>
<text x="201" y="725.5" text-anchor="middle" font-family="Inter, Segoe UI, Arial, sans-serif" font-size="14" font-weight="750" fill="#2563eb">8.27</text>
<rect x="221" y="724.9" width="24" height="235.1" rx="6" fill="#16a34a"/>
<text x="233" y="715.9" text-anchor="middle" font-family="Inter, Segoe UI, Arial, sans-serif" font-size="14" font-weight="750" fill="#16a34a">8.62</text>
<text x="185" y="998" text-anchor="middle" font-family="Inter, Segoe UI, Arial, sans-serif" font-size="17" font-weight="750" fill="#334155">GSM8K</text>
<rect x="295" y="745.1" width="24" height="214.9" rx="6" fill="#94a3b8"/>
<text x="307" y="736.1" text-anchor="middle" font-family="Inter, Segoe UI, Arial, sans-serif" font-size="14" font-weight="750" fill="#94a3b8">7.88</text>
<rect x="327" y="720.5" width="24" height="239.5" rx="6" fill="#f59e0b"/>
<text x="339" y="711.5" text-anchor="middle" font-family="Inter, Segoe UI, Arial, sans-serif" font-size="14" font-weight="750" fill="#f59e0b">8.78</text>
<rect x="359" y="704.2" width="24" height="255.8" rx="6" fill="#2563eb"/>
<text x="371" y="695.2" text-anchor="middle" font-family="Inter, Segoe UI, Arial, sans-serif" font-size="14" font-weight="750" fill="#2563eb">9.38</text>
<rect x="391" y="689.2" width="24" height="270.8" rx="6" fill="#16a34a"/>
<text x="403" y="680.2" text-anchor="middle" font-family="Inter, Segoe UI, Arial, sans-serif" font-size="14" font-weight="750" fill="#16a34a">9.93</text>
<text x="355" y="998" text-anchor="middle" font-family="Inter, Segoe UI, Arial, sans-serif" font-size="16" font-weight="750" fill="#334155">MATH-500</text>
<rect x="465" y="781.1" width="24" height="178.9" rx="6" fill="#94a3b8"/>
<text x="477" y="772.1" text-anchor="middle" font-family="Inter, Segoe UI, Arial, sans-serif" font-size="14" font-weight="750" fill="#94a3b8">6.56</text>
<rect x="497" y="751.6" width="24" height="208.4" rx="6" fill="#f59e0b"/>
<text x="509" y="742.6" text-anchor="middle" font-family="Inter, Segoe UI, Arial, sans-serif" font-size="14" font-weight="750" fill="#f59e0b">7.64</text>
<rect x="529" y="733.9" width="24" height="226.1" rx="6" fill="#2563eb"/>
<text x="541" y="724.9" text-anchor="middle" font-family="Inter, Segoe UI, Arial, sans-serif" font-size="14" font-weight="750" fill="#2563eb">8.29</text>
<rect x="561" y="717.5" width="24" height="242.5" rx="6" fill="#16a34a"/>
<text x="573" y="708.5" text-anchor="middle" font-family="Inter, Segoe UI, Arial, sans-serif" font-size="14" font-weight="750" fill="#16a34a">8.89</text>
<text x="525" y="998" text-anchor="middle" font-family="Inter, Segoe UI, Arial, sans-serif" font-size="17" font-weight="750" fill="#334155">HumanEval</text>
<rect x="635" y="798" width="24" height="162" rx="6" fill="#94a3b8"/>
<text x="647" y="789" text-anchor="middle" font-family="Inter, Segoe UI, Arial, sans-serif" font-size="14" font-weight="750" fill="#94a3b8">5.94</text>
<rect x="667" y="768.5" width="24" height="191.5" rx="6" fill="#f59e0b"/>
<text x="679" y="759.5" text-anchor="middle" font-family="Inter, Segoe UI, Arial, sans-serif" font-size="14" font-weight="750" fill="#f59e0b">7.02</text>
<rect x="699" y="749.2" width="24" height="210.8" rx="6" fill="#2563eb"/>
<text x="711" y="740.2" text-anchor="middle" font-family="Inter, Segoe UI, Arial, sans-serif" font-size="14" font-weight="750" fill="#2563eb">7.73</text>
<rect x="731" y="738.5" width="24" height="221.5" rx="6" fill="#16a34a"/>
<text x="743" y="729.5" text-anchor="middle" font-family="Inter, Segoe UI, Arial, sans-serif" font-size="14" font-weight="750" fill="#16a34a">8.12</text>
<text x="695" y="998" text-anchor="middle" font-family="Inter, Segoe UI, Arial, sans-serif" font-size="17" font-weight="750" fill="#334155">MBPP</text>
<rect x="805" y="843.5" width="24" height="116.5" rx="6" fill="#94a3b8"/>
<text x="817" y="834.5" text-anchor="middle" font-family="Inter, Segoe UI, Arial, sans-serif" font-size="14" font-weight="750" fill="#94a3b8">4.27</text>
<rect x="837" y="819.3" width="24" height="140.7" rx="6" fill="#f59e0b"/>
<text x="849" y="810.3" text-anchor="middle" font-family="Inter, Segoe UI, Arial, sans-serif" font-size="14" font-weight="750" fill="#f59e0b">5.16</text>
<rect x="869" y="809.5" width="24" height="150.5" rx="6" fill="#2563eb"/>
<text x="881" y="800.5" text-anchor="middle" font-family="Inter, Segoe UI, Arial, sans-serif" font-size="14" font-weight="750" fill="#2563eb">5.52</text>
<rect x="901" y="799.1" width="24" height="160.9" rx="6" fill="#16a34a"/>
<text x="913" y="790.1" text-anchor="middle" font-family="Inter, Segoe UI, Arial, sans-serif" font-size="14" font-weight="750" fill="#16a34a">5.90</text>
<text x="865" y="998" text-anchor="middle" font-family="Inter, Segoe UI, Arial, sans-serif" font-size="17" font-weight="750" fill="#334155">MT-Bench</text>
<rect x="975" y="789.8" width="24" height="170.2" rx="6" fill="#94a3b8"/>
<text x="987" y="780.8" text-anchor="middle" font-family="Inter, Segoe UI, Arial, sans-serif" font-size="14" font-weight="750" fill="#94a3b8">6.24</text>
<rect x="1007" y="762.3" width="24" height="197.7" rx="6" fill="#f59e0b"/>
<text x="1019" y="753.3" text-anchor="middle" font-family="Inter, Segoe UI, Arial, sans-serif" font-size="14" font-weight="750" fill="#f59e0b">7.25</text>
<rect x="1039" y="746.2" width="24" height="213.8" rx="6" fill="#2563eb"/>
<text x="1051" y="737.2" text-anchor="middle" font-family="Inter, Segoe UI, Arial, sans-serif" font-size="14" font-weight="750" fill="#2563eb">7.84</text>
<rect x="1071" y="733.9" width="24" height="226.1" rx="6" fill="#16a34a"/>
<text x="1083" y="724.9" text-anchor="middle" font-family="Inter, Segoe UI, Arial, sans-serif" font-size="14" font-weight="750" fill="#16a34a">8.29</text>
<text x="1035" y="998" text-anchor="middle" font-family="Inter, Segoe UI, Arial, sans-serif" font-size="17" font-weight="750" fill="#334155">Average</text>
<rect x="44" y="1022" width="1092" height="78" rx="10" fill="#f8fafc" stroke="#e2e8f0" stroke-width="1"/>
<text x="72" y="1052" text-anchor="start" font-family="Inter, Segoe UI, Arial, sans-serif" font-size="17" font-weight="750" fill="#0f172a">Average speedup: DFlash 4.82x, ReTree-16 4.92x (+2.1%), ReTree-32 5.23x (+8.5%), ReTree-64 5.43x (+12.7%).</text>
<text x="72" y="1080" text-anchor="start" font-family="Inter, Segoe UI, Arial, sans-serif" font-size="17" font-weight="500" fill="#475569">Average accepted length: DFlash 6.24, ReTree-16 7.25, ReTree-32 7.84, ReTree-64 8.29.</text>
</svg>
